<?xml version="1.0" encoding="UTF-8" standalone="no"?>
<!-- Created with Inkscape (http://www.inkscape.org/) -->

<svg
   width="1024"
   height="1024"
   viewBox="0 0 270.93333 270.93333"
   version="1.1"
   id="svg1"
   xml:space="preserve"
   inkscape:version="1.4.4 (dcaf3e7, 2026-05-05)"
   sodipodi:docname="donits.svg"
   xmlns:inkscape="http://www.inkscape.org/namespaces/inkscape"
   xmlns:sodipodi="http://sodipodi.sourceforge.net/DTD/sodipodi-0.dtd"
   xmlns="http://www.w3.org/2000/svg"
   xmlns:svg="http://www.w3.org/2000/svg"><sodipodi:namedview
     id="namedview1"
     pagecolor="#494949"
     bordercolor="#000000"
     borderopacity="0.25"
     inkscape:showpageshadow="2"
     inkscape:pageopacity="0.0"
     inkscape:pagecheckerboard="0"
     inkscape:deskcolor="#000000"
     inkscape:document-units="mm"
     inkscape:zoom="0.89887063"
     inkscape:cx="452.79041"
     inkscape:cy="514.53456"
     inkscape:window-width="2560"
     inkscape:window-height="1382"
     inkscape:window-x="1728"
     inkscape:window-y="30"
     inkscape:window-maximized="1"
     inkscape:current-layer="g43"
     showgrid="false"><inkscape:grid
       id="grid1"
       units="mm"
       originx="0"
       originy="0"
       spacingx="0.26458333"
       spacingy="0.26458333"
       empcolor="#0099e5"
       empopacity="0.30196078"
       color="#0099e5"
       opacity="0.14901961"
       empspacing="5"
       enabled="true"
       visible="false" /></sodipodi:namedview><defs
     id="defs1" /><g
     inkscape:label="Layer 1"
     inkscape:groupmode="layer"
     id="layer1"><g
       id="g34"
       transform="matrix(1.311151,0,0,1.311151,-57.507306,-75.65158)"
       style="fill:#000000;fill-opacity:1;stroke:#000000;stroke-opacity:1;stroke-width:3.66090557;stroke-dasharray:none;stroke-linejoin:round"><path
         style="fill:#000000;fill-opacity:1;stroke:#000000;stroke-opacity:1;stroke-width:3.66090557;stroke-dasharray:none;stroke-linejoin:round"
         d="m 168.48405,234.51444 c 3.40686,-1.29083 2.91252,-5.85258 -0.70038,-6.46298 -1.43094,-0.24175 -3.25897,0.58202 -3.85674,1.73798 -1.40206,2.71128 1.61517,5.83967 4.55712,4.725 z"
         id="path10" /><path
         style="fill:#000000;fill-opacity:1;stroke:#000000;stroke-opacity:1;stroke-width:3.66090557;stroke-dasharray:none;stroke-linejoin:round"
         d="m 170.15492,247.62894 v -10.18646 h -2.90432 -2.90431 l -0.0722,10.18656 -0.0722,10.18656 2.97656,-1e-4 2.97657,-10e-5 z"
         id="path12" /><path
         style="fill:#000000;fill-opacity:1;stroke:#000000;stroke-opacity:1;stroke-width:3.66090557;stroke-dasharray:none;stroke-linejoin:round"
         d="m 143.96748,252.3253 c 0.003,-3.01956 0.11463,-5.95714 0.24702,-6.52797 0.52373,-2.25818 2.21781,-3.59235 4.56143,-3.59235 2.02681,0 3.02797,0.52852 3.66688,1.93578 0.44791,0.98653 0.5032,1.7904 0.50838,7.39079 l 0.006,6.28385 h 3.06776 3.06776 l -0.11104,-7.2099 c -0.1253,-8.1358 -0.25538,-8.79766 -2.1541,-10.96011 -1.2731,-1.44993 -2.5314,-2.10565 -4.70783,-2.45334 -2.74221,-0.43807 -5.53449,0.20159 -7.27054,1.66555 -0.45757,0.38585 -0.90405,0.70155 -0.99218,0.70155 -0.0881,0 -0.16025,-0.47625 -0.16025,-1.05833 v -1.05834 h -2.77812 -2.77813 v 10.18646 10.18646 h 2.91042 2.91042 z"
         id="path13" /><path
         style="fill:#000000;fill-opacity:1;stroke:#000000;stroke-opacity:1;stroke-width:3.66090557;stroke-dasharray:none;stroke-linejoin:round"
         d="m 204.20834,257.68285 c 3.52195,-1.04883 5.46842,-3.9755 4.81225,-7.23561 -0.53807,-2.67335 -2.47607,-4.0539 -6.7188,-4.78618 -1.01865,-0.17582 -2.48476,-0.4507 -3.25803,-0.61084 -2.32923,-0.48238 -3.04552,-2.11221 -1.32037,-3.00432 1.17546,-0.60785 4.55894,-0.52433 6.47155,0.15975 0.85054,0.3042 1.73129,0.61484 1.95723,0.69029 0.55744,0.18617 2.52375,-3.86594 2.03021,-4.1838 -0.92221,-0.59393 -3.32728,-1.28271 -5.36172,-1.53552 -4.27612,-0.53137 -8.46822,0.56892 -10.29391,2.70183 -2.28053,2.66429 -1.77999,6.6388 1.04452,8.29407 1.43408,0.84043 2.16861,1.05337 5.94752,1.72417 1.73487,0.30797 3.23852,0.72088 3.50573,0.9627 0.68507,0.61998 0.57644,1.54027 -0.25971,2.20015 -0.66517,0.52494 -0.96597,0.56511 -3.50573,0.46819 -2.39292,-0.0913 -3.05091,-0.22261 -4.74549,-0.94685 -1.08205,-0.46245 -1.98153,-0.81332 -1.99883,-0.77971 -0.46644,0.90582 -1.72235,3.88272 -1.72235,4.08252 0,0.15127 0.70346,0.58012 1.56323,0.95299 1.36805,0.59331 2.18012,0.80014 5.31594,1.35395 1.20926,0.21357 5.13976,-0.0918 6.53676,-0.50778 z"
         id="path28" /><path
         style="fill:#000000;fill-opacity:1;stroke:#000000;stroke-opacity:1;stroke-width:3.66090557;stroke-dasharray:none;stroke-linejoin:round"
         d="m 187.37237,257.78313 c 1.61359,-0.53724 1.70149,-0.75621 1.06508,-2.65336 -0.77094,-2.29818 -0.89305,-2.4626 -1.56274,-2.10419 -0.96598,0.51698 -2.98601,0.36108 -3.67201,-0.28338 -0.59804,-0.56183 -0.61237,-0.69181 -0.61237,-5.55625 v -4.98097 h 2.51354 2.51354 v -2.23937 -2.23938 l -2.57968,-0.0757 -2.57969,-0.0757 0.004,-2.44739 0.004,-2.4474 h -2.98066 -2.98066 v 2.51354 2.51355 h -1.5875 -1.5875 v 2.24895 2.24896 h 1.5875 1.5875 v 5.15013 c 0,5.49041 0.21837,6.78899 1.41518,8.41553 0.72577,0.98635 2.43787,1.99449 3.91531,2.30544 1.36107,0.28647 4.25687,0.13325 5.53696,-0.29295 z"
         id="path29" /><path
         style="fill:#000000;fill-opacity:1;stroke:#000000;stroke-opacity:1;stroke-width:3.66090557;stroke-dasharray:none;stroke-linejoin:round"
         d="m 127.32506,257.37366 c 4.30019,-2.0171 6.51744,-5.74169 6.26631,-10.52631 -0.0895,-1.70461 -0.28247,-2.50842 -0.92697,-3.86063 -1.40507,-2.94791 -1.25875,-2.89018 -3.54394,-1.39839 l -1.97576,1.28979 0.79071,1.27893 c 1.60757,2.60019 1.06965,6.2541 -1.20769,8.20342 -1.19507,1.02294 -2.56632,1.48844 -4.36079,1.48037 -3.88877,-0.0175 -6.8274,-3.85894 -5.95027,-7.77835 0.38675,-1.72818 1.97766,-3.68668 3.58947,-4.41883 1.72696,-0.78445 1.95516,-0.69235 2.04694,0.82614 l 0.08,1.32314 3.78738,-2.4133 3.78739,-2.4133 -3.71713,-2.48172 c -2.04442,-1.36495 -3.77851,-2.48172 -3.85353,-2.48172 -0.075,0 -0.1364,0.56807 -0.1364,1.26238 v 1.26238 l -1.61297,0.30653 c -3.11034,0.5911 -5.9674,2.5736 -7.51524,5.21479 -2.11662,3.61174 -1.76762,8.82257 0.80713,12.05089 2.37857,2.98235 5.31974,4.28998 9.37941,4.17006 2.16922,-0.0641 2.7536,-0.18686 4.26598,-0.89627 z"
         id="path30" /><path
         id="path34"
         style="fill:#000000;fill-opacity:1;stroke:#000000;stroke-opacity:1;stroke-width:3.66090557;stroke-dasharray:none;stroke-linejoin:round"
         d="m 101.49561,229.63715 -0.0129,2.64583 c -0.007,1.45521 -0.0375,3.57674 -0.0667,4.71444 l -0.0527,2.06861 -0.75912,-0.54054 c -2.631063,-1.87348 -6.896402,-1.96933 -10.162692,-0.22841 -4.16903,2.22207 -6.151861,7.35535 -4.818311,12.47521 0.70363,2.70141 2.613025,5.18526 4.927865,6.41098 2.38168,1.26111 6.160002,1.3741 8.563302,0.2558 0.7276,-0.33857 1.585526,-0.8684 1.906856,-1.17771 0.32134,-0.30931 0.619,-0.5627 0.66146,-0.56276 h 5.2e-4 5.2e-4 5.1e-4 l 5.2e-4,5.2e-4 c 0.0411,0.0145 0.0573,0.48476 0.0362,1.05782 l -0.0388,1.05833 h 2.88561 2.88561 l -0.0687,-14.08906 -0.0682,-14.08906 h -2.91042 z m -5.217249,12.30881 c 3.2068,-0.0164 5.151249,2.12568 5.186249,5.71386 0.0161,1.64552 -0.0809,2.0439 -0.76895,3.15484 -1.446026,2.33479 -4.243279,3.14932 -6.677109,1.94459 -1.89022,-0.93564 -2.742469,-2.53915 -2.742469,-5.15989 0,-1.66841 0.496783,-3.26095 1.299663,-4.16512 0.69133,-0.77855 2.440406,-1.48181 3.702616,-1.48828 z" /></g><g
       id="g44"
       transform="matrix(1.311151,0,0,1.311151,-57.507306,-75.65158)"><path
         style="fill:#ffffff;fill-opacity:1"
         d="m 168.48405,234.51444 c 3.40686,-1.29083 2.91252,-5.85258 -0.70038,-6.46298 -1.43094,-0.24175 -3.25897,0.58202 -3.85674,1.73798 -1.40206,2.71128 1.61517,5.83967 4.55712,4.725 z"
         id="path43" /><path
         style="fill:#ffffff;fill-opacity:1"
         d="m 170.15492,247.62894 v -10.18646 h -2.90432 -2.90431 l -0.0722,10.18656 -0.0722,10.18656 2.97656,-1e-4 2.97657,-10e-5 z"
         id="path42" /><path
         style="fill:#ffffff;fill-opacity:1"
         d="m 143.96748,252.3253 c 0.003,-3.01956 0.11463,-5.95714 0.24702,-6.52797 0.52373,-2.25818 2.21781,-3.59235 4.56143,-3.59235 2.02681,0 3.02797,0.52852 3.66688,1.93578 0.44791,0.98653 0.5032,1.7904 0.50838,7.39079 l 0.006,6.28385 h 3.06776 3.06776 l -0.11104,-7.2099 c -0.1253,-8.1358 -0.25538,-8.79766 -2.1541,-10.96011 -1.2731,-1.44993 -2.5314,-2.10565 -4.70783,-2.45334 -2.74221,-0.43807 -5.53449,0.20159 -7.27054,1.66555 -0.45757,0.38585 -0.90405,0.70155 -0.99218,0.70155 -0.0881,0 -0.16025,-0.47625 -0.16025,-1.05833 v -1.05834 h -2.77812 -2.77813 v 10.18646 10.18646 h 2.91042 2.91042 z"
         id="path41" /><path
         style="fill:#ffffff;fill-opacity:1"
         d="m 204.20834,257.68285 c 3.52195,-1.04883 5.46842,-3.9755 4.81225,-7.23561 -0.53807,-2.67335 -2.47607,-4.0539 -6.7188,-4.78618 -1.01865,-0.17582 -2.48476,-0.4507 -3.25803,-0.61084 -2.32923,-0.48238 -3.04552,-2.11221 -1.32037,-3.00432 1.17546,-0.60785 4.55894,-0.52433 6.47155,0.15975 0.85054,0.3042 1.73129,0.61484 1.95723,0.69029 0.55744,0.18617 2.52375,-3.86594 2.03021,-4.1838 -0.92221,-0.59393 -3.32728,-1.28271 -5.36172,-1.53552 -4.27612,-0.53137 -8.46822,0.56892 -10.29391,2.70183 -2.28053,2.66429 -1.77999,6.6388 1.04452,8.29407 1.43408,0.84043 2.16861,1.05337 5.94752,1.72417 1.73487,0.30797 3.23852,0.72088 3.50573,0.9627 0.68507,0.61998 0.57644,1.54027 -0.25971,2.20015 -0.66517,0.52494 -0.96597,0.56511 -3.50573,0.46819 -2.39292,-0.0913 -3.05091,-0.22261 -4.74549,-0.94685 -1.08205,-0.46245 -1.98153,-0.81332 -1.99883,-0.77971 -0.46644,0.90582 -1.72235,3.88272 -1.72235,4.08252 0,0.15127 0.70346,0.58012 1.56323,0.95299 1.36805,0.59331 2.18012,0.80014 5.31594,1.35395 1.20926,0.21357 5.13976,-0.0918 6.53676,-0.50778 z"
         id="path40" /><path
         style="fill:#ffffff;fill-opacity:1"
         d="m 187.37237,257.78313 c 1.61359,-0.53724 1.70149,-0.75621 1.06508,-2.65336 -0.77094,-2.29818 -0.89305,-2.4626 -1.56274,-2.10419 -0.96598,0.51698 -2.98601,0.36108 -3.67201,-0.28338 -0.59804,-0.56183 -0.61237,-0.69181 -0.61237,-5.55625 v -4.98097 h 2.51354 2.51354 v -2.23937 -2.23938 l -2.57968,-0.0757 -2.57969,-0.0757 0.004,-2.44739 0.004,-2.4474 h -2.98066 -2.98066 v 2.51354 2.51355 h -1.5875 -1.5875 v 2.24895 2.24896 h 1.5875 1.5875 v 5.15013 c 0,5.49041 0.21837,6.78899 1.41518,8.41553 0.72577,0.98635 2.43787,1.99449 3.91531,2.30544 1.36107,0.28647 4.25687,0.13325 5.53696,-0.29295 z"
         id="path39" /><path
         style="fill:#dd7ab9;fill-opacity:1"
         d="m 127.32506,257.37366 c 4.30019,-2.0171 6.51744,-5.74169 6.26631,-10.52631 -0.0895,-1.70461 -0.28247,-2.50842 -0.92697,-3.86063 -1.40507,-2.94791 -1.25875,-2.89018 -3.54394,-1.39839 l -1.97576,1.28979 0.79071,1.27893 c 1.60757,2.60019 1.06965,6.2541 -1.20769,8.20342 -1.19507,1.02294 -2.56632,1.48844 -4.36079,1.48037 -3.88877,-0.0175 -6.8274,-3.85894 -5.95027,-7.77835 0.38675,-1.72818 1.97766,-3.68668 3.58947,-4.41883 1.72696,-0.78445 1.95516,-0.69235 2.04694,0.82614 l 0.08,1.32314 3.78738,-2.4133 3.78739,-2.4133 -3.71713,-2.48172 c -2.04442,-1.36495 -3.77851,-2.48172 -3.85353,-2.48172 -0.075,0 -0.1364,0.56807 -0.1364,1.26238 v 1.26238 l -1.61297,0.30653 c -3.11034,0.5911 -5.9674,2.5736 -7.51524,5.21479 -2.11662,3.61174 -1.76762,8.82257 0.80713,12.05089 2.37857,2.98235 5.31974,4.28998 9.37941,4.17006 2.16922,-0.0641 2.7536,-0.18686 4.26598,-0.89627 z"
         id="path38" /><path
         id="path37"
         style="fill:#ffffff;fill-opacity:1"
         d="m 101.49561,229.63715 -0.0129,2.64583 c -0.007,1.45521 -0.0375,3.57674 -0.0667,4.71444 l -0.0527,2.06861 -0.75912,-0.54054 c -2.631063,-1.87348 -6.896402,-1.96933 -10.162692,-0.22841 -4.16903,2.22207 -6.151861,7.35535 -4.818311,12.47521 0.70363,2.70141 2.613025,5.18526 4.927865,6.41098 2.38168,1.26111 6.160002,1.3741 8.563302,0.2558 0.7276,-0.33857 1.585526,-0.8684 1.906856,-1.17771 0.32134,-0.30931 0.619,-0.5627 0.66146,-0.56276 h 5.2e-4 5.2e-4 5.1e-4 l 5.2e-4,5.2e-4 c 0.0411,0.0145 0.0573,0.48476 0.0362,1.05782 l -0.0388,1.05833 h 2.88561 2.88561 l -0.0687,-14.08906 -0.0682,-14.08906 h -2.91042 z m -5.217249,12.30881 c 3.2068,-0.0164 5.151249,2.12568 5.186249,5.71386 0.0161,1.64552 -0.0809,2.0439 -0.76895,3.15484 -1.446026,2.33479 -4.243279,3.14932 -6.677109,1.94459 -1.89022,-0.93564 -2.742469,-2.53915 -2.742469,-5.15989 0,-1.66841 0.496783,-3.26095 1.299663,-4.16512 0.69133,-0.77855 2.440406,-1.48181 3.702616,-1.48828 z" /></g><g
       id="g43"
       transform="matrix(6.8008081,0,0,6.8008081,-260.6536,-1540.6325)"><g
         id="g9"
         style="stroke:#000000;stroke-width:0.70579848;stroke-linejoin:round;stroke-dasharray:none;stroke-opacity:1"><g
           id="g8"
           transform="rotate(104.04155,58.182861,243.42075)"
           style="fill:#000000;fill-opacity:1;stroke:#000000;stroke-width:0.70579848;stroke-linejoin:round;stroke-dasharray:none;stroke-opacity:1"><path
             id="path5"
             style="baseline-shift:baseline;display:inline;overflow:visible;opacity:1;fill:#000000;fill-opacity:1;fill-rule:evenodd;stroke:#000000;stroke-width:0.70579848;stroke-linejoin:round;stroke-dasharray:none;stroke-opacity:1;enable-background:accumulate;stop-color:#000000;stop-opacity:1"
             d="m 62.055949,228.41009 2.589162,2.9455 c 8.704739,4.53609 9.981118,17.199 1.319585,23.32637 l 5.390085,-1.15824 -1.004653,-0.69679 c 5.719365,-7.38313 3.601096,-18.60462 -5.323214,-23.16804 -1.205554,-0.5788 -2.053725,-0.88787 -2.970965,-1.2488 z"
             sodipodi:nodetypes="ccccccc" /><path
             id="path7"
             style="baseline-shift:baseline;display:inline;overflow:visible;opacity:1;fill:#000000;fill-opacity:1;fill-rule:evenodd;stroke:#000000;stroke-width:0.70579848;stroke-linejoin:round;stroke-dasharray:none;stroke-opacity:1;enable-background:accumulate;stop-color:#000000;stop-opacity:1"
             d="m 69.239066,254.26975 -3.84546,0.76953 c -8.280739,5.27048 -19.885333,0.0444 -20.861019,-10.52039 l -1.691978,5.24707 1.105764,-0.52166 c 3.534295,8.64468 14.311524,12.42095 22.725716,6.97398 1.104032,-0.75464 1.795784,-1.33464 2.566977,-1.94853 z"
             sodipodi:nodetypes="ccccccc" /><path
             id="path8"
             style="baseline-shift:baseline;display:inline;overflow:visible;opacity:1;fill:#000000;fill-opacity:1;fill-rule:evenodd;stroke:#000000;stroke-width:0.70579848;stroke-linejoin:round;stroke-dasharray:none;stroke-opacity:1;enable-background:accumulate;stop-color:#000000;stop-opacity:1"
             d="m 43.239208,247.54989 1.2563,-3.71503 c -0.424,-9.80657 9.904203,-17.24341 19.54143,-12.80598 l -3.698107,-4.08883 -0.101109,1.21845 c -9.253659,-1.26155 -17.912619,6.18367 -17.402498,16.19406 0.101522,1.33344 0.257933,2.22251 0.403984,3.19733 z"
             sodipodi:nodetypes="ccccccc" /></g><path
           id="path9"
           style="fill:#000000;fill-opacity:1;fill-rule:evenodd;stroke:#000000;stroke-width:0.70579848;stroke-linejoin:round;stroke-dasharray:none;stroke-opacity:1"
           d="m 58.208331,230.18749 a 13.229165,13.229165 0 0 0 -13.229167,13.22917 13.229165,13.229165 0 0 0 13.229167,13.22917 13.229165,13.229165 0 0 0 13.229166,-13.22917 13.229165,13.229165 0 0 0 -13.229166,-13.22917 z m 0,7.9375 a 5.2916656,5.2916684 0 0 1 5.291666,5.29167 5.2916656,5.2916684 0 0 1 -5.291666,5.29167 5.2916656,5.2916684 0 0 1 -5.291667,-5.29167 5.2916656,5.2916684 0 0 1 5.291667,-5.29167 z" /></g><path
         id="path1"
         style="fill:#dd7ab9;fill-opacity:1;fill-rule:evenodd;stroke-width:1"
         d="m 58.208331,230.18749 a 13.229165,13.229165 0 0 0 -13.229167,13.22917 13.229165,13.229165 0 0 0 13.229167,13.22917 13.229165,13.229165 0 0 0 13.229166,-13.22917 13.229165,13.229165 0 0 0 -13.229166,-13.22917 z m 0,7.9375 a 5.2916656,5.2916684 0 0 1 5.291666,5.29167 5.2916656,5.2916684 0 0 1 -5.291666,5.29167 5.2916656,5.2916684 0 0 1 -5.291667,-5.29167 5.2916656,5.2916684 0 0 1 5.291667,-5.29167 z" /><path
         id="path2"
         style="fill:#2b0000;fill-opacity:0.366492;fill-rule:evenodd;stroke-width:1.1"
         d="m 57.679167,236.80208 a 5.8208322,5.8208241 0 0 0 -5.820834,5.82084 5.8208322,5.8208241 0 0 0 4.086573,5.55676 5.1593741,5.2916575 0 0 1 -2.910934,-4.76301 5.1593741,5.2916575 0 0 1 5.159375,-5.29167 5.1593741,5.2916575 0 0 1 5.159375,5.29167 5.1593741,5.2916575 0 0 1 -0.04289,0.68213 5.8208322,5.8208241 0 0 0 0.190169,-1.47588 5.8208322,5.8208241 0 0 0 -5.820834,-5.82084 z" /><path
         id="path3"
         style="fill:#ffffff;fill-opacity:1;fill-rule:evenodd;stroke-width:2.28789"
         d="M 56.538666,231.51041 A 10.480393,10.7076 0 0 0 46.302081,242.07876 15.21354,15.21354 0 0 1 56.538666,231.51041 Z" /><path
         id="path4"
         style="fill:#ffffff;fill-opacity:1;fill-rule:evenodd;stroke-width:1.16398"
         d="m 59.531245,250.03124 a 5.4176994,5.361387 0 0 0 5.291669,-5.29166 7.8644366,7.6175497 0 0 1 -5.291669,5.29166 z" /><path
         id="path6"
         style="fill:#ffffff;fill-opacity:1;fill-rule:evenodd;stroke-width:0.929895"
         d="m 71.129508,240.6649 c -2.397426,0.70472 -1.47421,2.37359 -2.324996,3.91928 -0.850785,1.54569 -1.234293,2.00523 -2.18245,2.53314 -2.264088,1.26057 -2.834843,5.08626 -4.285647,5.65699 -1.450804,0.57073 -4.049456,-1.00251 -5.620694,-1.25017 -1.293509,-0.20389 -3.001302,0.43581 -4.239338,0.35971 -1.238036,-0.0761 -2.151841,-0.63852 -2.75177,-2.14199 -0.748803,-1.87656 -1.333502,-5.20917 -4.57233,-4.18269 1.045742,6.39317 6.569753,11.0869 13.047782,11.08666 7.301466,-1.7e-4 13.220384,-5.91932 13.220382,-13.2209 1.19e-4,-0.92767 -0.0974,-1.85278 -0.290939,-2.76003 z"
         sodipodi:nodetypes="czssssscccc" /><path
         style="baseline-shift:baseline;display:inline;overflow:visible;opacity:1;vector-effect:none;fill:#ffffff;fill-rule:evenodd;stroke-linecap:round;enable-background:accumulate;stop-color:#000000;stop-opacity:1"
         d="m 49.450675,246.43116 a 0.15000001,0.15000001 0 0 0 -0.210938,0.0137 0.15000001,0.15000001 0 0 0 0.01367,0.21289 l 0.521484,0.45704 a 0.15000001,0.15000001 0 0 0 0.212891,-0.0137 0.15000001,0.15000001 0 0 0 -0.01367,-0.21289 z"
         id="path11" /><path
         style="baseline-shift:baseline;display:inline;overflow:visible;opacity:1;vector-effect:none;fill:#ffffff;fill-rule:evenodd;stroke-linecap:round;enable-background:accumulate;stop-color:#000000;stop-opacity:1"
         d="m 54.965048,250.04069 a 0.15000001,0.15000001 0 0 0 -0.150231,-0.14871 0.15000001,0.15000001 0 0 0 -0.15021,0.15148 l 0.0042,0.6934 a 0.15000001,0.15000001 0 0 0 0.151531,0.15017 0.15000001,0.15000001 0 0 0 0.15021,-0.15147 z"
         id="path14" /><path
         style="baseline-shift:baseline;display:inline;overflow:visible;opacity:1;vector-effect:none;fill:#ffffff;fill-rule:evenodd;stroke-linecap:round;enable-background:accumulate;stop-color:#000000;stop-opacity:1"
         d="m 58.276202,251.07106 a 0.15000001,0.15000001 0 0 0 0.20826,-0.0362 0.15000001,0.15000001 0 0 0 -0.03632,-0.21021 l -0.567367,-0.39866 a 0.15000001,0.15000001 0 0 0 -0.210209,0.0364 0.15000001,0.15000001 0 0 0 0.03632,0.21022 z"
         id="path15" /><path
         style="baseline-shift:baseline;display:inline;overflow:visible;opacity:1;vector-effect:none;fill:#ffffff;fill-rule:evenodd;stroke-linecap:round;enable-background:accumulate;stop-color:#000000;stop-opacity:1"
         d="m 61.994135,251.28302 a 0.15000001,0.15000001 0 0 0 0.03492,0.20848 0.15000001,0.15000001 0 0 0 0.21043,-0.035 l 0.402142,-0.5649 a 0.15000001,0.15000001 0 0 0 -0.03511,-0.21043 0.15000001,0.15000001 0 0 0 -0.210439,0.035 z"
         id="path16" /><path
         style="baseline-shift:baseline;display:inline;overflow:visible;opacity:1;vector-effect:none;fill:#ffffff;fill-rule:evenodd;stroke-linecap:round;enable-background:accumulate;stop-color:#000000;stop-opacity:1"
         d="m 67.160341,243.76221 a 0.15000001,0.15000001 0 0 0 -0.207981,-0.0378 0.15000001,0.15000001 0 0 0 -0.03837,0.20984 l 0.395237,0.56975 a 0.15000001,0.15000001 0 0 0 0.209879,0.0383 0.15000001,0.15000001 0 0 0 0.03837,-0.20985 z"
         id="path17" /><path
         style="baseline-shift:baseline;display:inline;overflow:visible;opacity:1;vector-effect:none;fill:#ffffff;fill-rule:evenodd;stroke-linecap:round;enable-background:accumulate;stop-color:#000000;stop-opacity:1"
         d="m 52.12026,249.75957 a 0.15000001,0.15000001 0 0 0 -0.03431,-0.20858 0.15000001,0.15000001 0 0 0 -0.210528,0.0344 l -0.403744,0.56375 a 0.15000001,0.15000001 0 0 0 0.03448,0.21054 0.15000001,0.15000001 0 0 0 0.210537,-0.0344 z"
         id="path18" /><path
         style="baseline-shift:baseline;display:inline;overflow:visible;opacity:1;vector-effect:none;fill:#ffffff;fill-rule:evenodd;stroke-linecap:round;enable-background:accumulate;stop-color:#000000;stop-opacity:1"
         d="m 65.931792,246.49016 a 0.15000001,0.15000001 0 0 0 0.01505,-0.21085 0.15000001,0.15000001 0 0 0 -0.212762,-0.0154 l -0.523582,0.45463 a 0.15000001,0.15000001 0 0 0 -0.01534,0.21279 0.15000001,0.15000001 0 0 0 0.212771,0.0154 z"
         id="path19" /><path
         style="baseline-shift:baseline;display:inline;overflow:visible;opacity:1;vector-effect:none;fill:#dd7ab9;fill-opacity:1;fill-rule:evenodd;stroke-linecap:round;enable-background:accumulate;stop-color:#000000;stop-opacity:1"
         d="m 66.822086,249.12718 a 0.15000001,0.15000001 0 0 0 -0.198099,-0.0738 0.15000001,0.15000001 0 0 0 -0.07463,0.19984 l 0.288922,0.63035 a 0.15000001,0.15000001 0 0 0 0.199887,0.0746 0.15000001,0.15000001 0 0 0 0.07464,-0.19985 z"
         id="path20" /><path
         style="baseline-shift:baseline;display:inline;overflow:visible;opacity:1;vector-effect:none;fill:#dd7ab9;fill-opacity:1;fill-rule:evenodd;stroke-linecap:round;enable-background:accumulate;stop-color:#000000;stop-opacity:1"
         d="m 69.141886,247.52442 a 0.15000001,0.15000001 0 0 0 0.134681,-0.16293 0.15000001,0.15000001 0 0 0 -0.164283,-0.13607 l -0.690253,0.0661 a 0.15000001,0.15000001 0 0 0 -0.136052,0.16434 0.15000001,0.15000001 0 0 0 0.164289,0.13609 z"
         id="path21" /><path
         style="baseline-shift:baseline;display:inline;overflow:visible;opacity:1;vector-effect:none;fill:#dd7ab9;fill-opacity:1;fill-rule:evenodd;stroke-linecap:round;enable-background:accumulate;stop-color:#000000;stop-opacity:1"
         d="m 63.310021,254.00978 a 0.15000001,0.15000001 0 0 0 0.15494,-0.1438 0.15000001,0.15000001 0 0 0 -0.144959,-0.1565 l -0.692959,-0.0252 a 0.15000001,0.15000001 0 0 0 -0.156483,0.14501 0.15000001,0.15000001 0 0 0 0.144963,0.15652 z"
         id="path22" /><path
         style="baseline-shift:baseline;display:inline;overflow:visible;opacity:1;vector-effect:none;fill:#dd7ab9;fill-opacity:1;fill-rule:evenodd;stroke-linecap:round;enable-background:accumulate;stop-color:#000000;stop-opacity:1"
         d="m 56.890391,253.45211 a 0.15000001,0.15000001 74.129629 0 0 0.202046,0.0621 0.15000001,0.15000001 74.129629 0 0 0.06292,-0.20383 l -0.325063,-0.6125 a 0.15000001,0.15000001 74.129629 0 0 -0.203866,-0.0629 0.15000001,0.15000001 74.129629 0 0 -0.06293,0.20385 z"
         id="path23" /><path
         style="baseline-shift:baseline;display:inline;overflow:visible;opacity:1;vector-effect:none;fill:#dd7ab9;fill-opacity:1;fill-rule:evenodd;stroke-linecap:round;enable-background:accumulate;stop-color:#000000;stop-opacity:1"
         d="m 59.628123,254.23948 a 0.15000001,0.15000001 0 0 0 -0.08494,-0.19357 0.15000001,0.15000001 0 0 0 -0.195428,0.0855 l -0.251397,0.64624 a 0.15000001,0.15000001 0 0 0 0.08557,0.19543 0.15000001,0.15000001 0 0 0 0.195448,-0.0855 z"
         id="path24" /><path
         style="baseline-shift:baseline;display:inline;overflow:visible;opacity:1;vector-effect:none;fill:#dd7ab9;fill-opacity:1;fill-rule:evenodd;stroke-linecap:round;enable-background:accumulate;stop-color:#000000;stop-opacity:1"
         d="m 53.48062,253.39555 a 0.15000001,0.15000001 88.132772 0 0 0.110038,-0.18049 0.15000001,0.15000001 88.132772 0 0 -0.182029,-0.11123 l -0.673735,0.16404 a 0.15000001,0.15000001 88.132772 0 0 -0.111194,0.18207 0.15000001,0.15000001 88.132772 0 0 0.182038,0.11125 z"
         id="path25" /><path
         style="baseline-shift:baseline;display:inline;overflow:visible;opacity:1;vector-effect:none;fill:#dd7ab9;fill-opacity:1;fill-rule:evenodd;stroke-linecap:round;enable-background:accumulate;stop-color:#000000;stop-opacity:1"
         d="m 64.985924,251.64229 a 0.15000001,0.15000001 0 0 0 -0.209194,0.0302 0.15000001,0.15000001 0 0 0 0.03025,0.21116 l 0.555658,0.41482 a 0.15000001,0.15000001 0 0 0 0.211177,-0.0303 0.15000001,0.15000001 0 0 0 -0.03025,-0.21119 z"
         id="path26" /><path
         style="baseline-shift:baseline;display:inline;overflow:visible;opacity:1;vector-effect:none;fill:#dd7ab9;fill-opacity:1;fill-rule:evenodd;stroke-linecap:round;enable-background:accumulate;stop-color:#000000;stop-opacity:1"
         d="m 48.099604,249.7524 a 0.15000001,0.15000001 0 0 0 0.17842,0.11334 0.15000001,0.15000001 0 0 0 0.114599,-0.17992 l -0.151452,-0.67668 a 0.15000001,0.15000001 0 0 0 -0.179964,-0.11459 0.15000001,0.15000001 0 0 0 -0.114614,0.17994 z"
         id="path27" /><g
         id="g31"
         transform="rotate(104.04155,58.182861,243.42075)"
         style="stroke-width:1.00002822;stroke-dasharray:none"><path
           id="path33"
           style="baseline-shift:baseline;display:inline;overflow:visible;opacity:1;fill:#ffffff;fill-rule:evenodd;enable-background:accumulate;stop-color:#000000;stop-opacity:1;stroke-width:1.00002822;stroke-dasharray:none"
           d="m 62.055949,228.41009 2.589162,2.9455 c 8.704739,4.53609 9.981118,17.199 1.319585,23.32637 l 5.390085,-1.15824 -1.004653,-0.69679 c 5.719365,-7.38313 3.601096,-18.60462 -5.323214,-23.16804 -1.205554,-0.5788 -2.053725,-0.88787 -2.970965,-1.2488 z"
           sodipodi:nodetypes="ccccccc" /><path
           id="path32"
           style="baseline-shift:baseline;display:inline;overflow:visible;opacity:1;fill:#ffffff;fill-rule:evenodd;enable-background:accumulate;stop-color:#000000;stop-opacity:1;stroke-width:1.00002822;stroke-dasharray:none"
           d="m 69.239066,254.26975 -3.84546,0.76953 c -8.280739,5.27048 -19.885333,0.0444 -20.861019,-10.52039 l -1.691978,5.24707 1.105764,-0.52166 c 3.534295,8.64468 14.311524,12.42095 22.725716,6.97398 1.104032,-0.75464 1.795784,-1.33464 2.566977,-1.94853 z"
           sodipodi:nodetypes="ccccccc" /><path
           id="path31"
           style="baseline-shift:baseline;display:inline;overflow:visible;opacity:1;fill:#ffffff;fill-rule:evenodd;enable-background:accumulate;stop-color:#000000;stop-opacity:1;stroke-width:1.00002822;stroke-dasharray:none"
           d="m 43.239208,247.54989 1.2563,-3.71503 c -0.424,-9.80657 9.904203,-17.24341 19.54143,-12.80598 l -3.698107,-4.08883 -0.101109,1.21845 c -9.253659,-1.26155 -17.912619,6.18367 -17.402498,16.19406 0.101522,1.33344 0.257933,2.22251 0.403984,3.19733 z"
           sodipodi:nodetypes="ccccccc" /></g></g></g></svg>
